<?xml version="1.0" standalone="no"?>
<!DOCTYPE svg PUBLIC "-//W3C//DTD SVG 20010904//EN"
 "http://www.w3.org/TR/2001/REC-SVG-20010904/DTD/svg10.dtd">
<svg version="1.0" xmlns="http://www.w3.org/2000/svg"
 width="500.000000pt" height="500.000000pt" viewBox="0 0 500.000000 500.000000"
 preserveAspectRatio="xMidYMid meet">
<metadata>
Created by potrace 1.14, written by Peter Selinger 2001-2017
</metadata>
<g transform="translate(0.000000,500.000000) scale(0.100000,-0.100000)"
fill="#000000" stroke="none">
<path d="M1620 4475 c-423 -63 -811 -283 -1080 -615 -25 -30 -47 -57 -50 -60
-19 -18 -109 -167 -153 -253 -140 -271 -205 -539 -205 -847 0 -244 41 -462
130 -684 87 -220 217 -422 378 -584 58 -59 119 -119 136 -133 43 -36 179 -130
238 -164 44 -25 67 -53 131 -153 6 -9 15 -21 20 -27 6 -6 21 -27 35 -45 74
-99 260 -267 409 -370 131 -90 384 -198 531 -226 14 -3 45 -10 70 -15 87 -20
147 -24 315 -23 178 0 248 9 405 48 94 24 215 69 306 113 97 47 254 143 254
154 0 5 7 9 15 9 8 0 15 5 15 10 0 6 4 10 10 10 19 0 237 209 291 280 18 25
39 51 45 57 7 7 14 16 16 21 1 5 46 34 98 64 184 108 357 255 484 413 71 88
62 74 128 180 190 303 282 644 273 1015 -4 190 -7 211 -60 452 -13 58 -75 219
-120 313 -67 137 -127 232 -227 360 -53 67 -209 216 -296 282 -187 142 -439
260 -642 302 -30 6 -66 14 -80 16 -62 13 -156 20 -285 20 -198 0 -279 -11
-461 -62 l-91 -26 -64 30 c-132 62 -316 116 -474 138 -115 16 -336 16 -445 0z"/>
</g>
</svg>
